# xmcd
#
# Track frame offsets:
#	150
#	17963
#	37089
#	54228
#	69716
#	84597
#	96967
#	116356
#	145485
#	179012
#	190937
#	205976
#
# Disc length: 2895 seconds
#
# Revision: 1
# Processed by: cddbd v1.5.1PL0 Copyright (c) Steve Scherf et al.
# Submitted via: audiograbber 1.83.01
#
DISCID=b20b4d0c
DTITLE=Sonnie Ronnie and The Shotguns - Blues Is My Passion
DYEAR=2004
DGENRE=Blues
TTITLE0=Don't You Know
TTITLE1=Follow Your Heart
TTITLE2=Flamenco Dancer
TTITLE3=You'll Be Mine
TTITLE4=Neighbour Neighbour
TTITLE5=Hush Hush
TTITLE6=I'd Walk Thirty Miles
TTITLE7=The Thrill Is Gone
TTITLE8=Voodoo Chile (Slight Return)
TTITLE9=Walkin' To My Baby
TTITLE10=Ridin' In The Moonlight
TTITLE11=I Hear You Knockin'
EXTD=
EXTT0=
EXTT1=
EXTT2=
EXTT3=
EXTT4=
EXTT5=
EXTT6=
EXTT7=
EXTT8=
EXTT9=
EXTT10=
EXTT11=
PLAYORDER=
